PathFileType	4	(X/Y/Z)	static_1_OpenSim.trc.	Data\Walking\Mocap\Sub011\Generated_files\Files_W_HJCs																																																																																																																																																															
DataRate	CameraRate	NumFrames	NumMarkers	Units	OrigDataRate	OrigDataStartFrame	OrigNumFrames																																																																																																																																																												
100	100	5	54	mm	100	62	491																																																																																																																																																												
Frame#	Time	R.ASIS			R.PSIS			S2			L.PSIS			L.ASIS			R.TH1			R.TH2			R.TH3			R.Knee			R.SH1			R.SH2			R.SH3			R.SH4			R.Ankle			R.MAnkle			R.Heel			R.LatHeel			R.PT			R.MT5			R.Toe			R.MT1			R.ProxMet1			R.ST			R.MedHeel			L.TH1			L.TH2			L.TH3			L.TH4			L.Knee			L.SH1			L.SH2			L.SH3			L.Ankle			L.MAnkle			L.Heel			L.LatHeel			L.PT			L.MT5			L.Toe			L.MT1			L.ProxMet1			L.ST			L.MedHeel			T.Med			T.Lat			T.Bot			R.Acr			L.Acr			C7			Clav			R.MKnee			L.MKnee			R_HJC			L_HJC		
		X1	Y1	Z1	X2	Y2	Z2	X3	Y3	Z3	X4	Y4	Z4	X5	Y5	Z5	X6	Y6	Z6	X7	Y7	Z7	X8	Y8	Z8	X9	Y9	Z9	X10	Y10	Z10	X11	Y11	Z11	X12	Y12	Z12	X13	Y13	Z13	X14	Y14	Z14	X15	Y15	Z15	X16	Y16	Z16	X17	Y17	Z17	X18	Y18	Z18	X19	Y19	Z19	X20	Y20	Z20	X21	Y21	Z21	X22	Y22	Z22	X23	Y23	Z23	X24	Y24	Z24	X25	Y25	Z25	X26	Y26	Z26	X27	Y27	Z27	X28	Y28	Z28	X29	Y29	Z29	X30	Y30	Z30	X31	Y31	Z31	X32	Y32	Z32	X33	Y33	Z33	X34	Y34	Z34	X35	Y35	Z35	X36	Y36	Z36	X37	Y37	Z37	X38	Y38	Z38	X39	Y39	Z39	X40	Y40	Z40	X41	Y41	Z41	X42	Y42	Z42	X43	Y43	Z43	X44	Y44	Z44	X45	Y45	Z45	X46	Y46	Z46	X47	Y47	Z47	X48	Y48	Z48	X49	Y49	Z49	X50	Y50	Z50	X51	Y51	Z51	X52	Y52	Z52	X53	Y53	Z53	X54	Y54	Z54
																																																																																																																																																																			
62	0.61	1232.497	994.738	-430.106	1058.408	1010.909	-498.432	1057.847	993.181	-556.393	1064.417	1008.428	-607.403	1252.131	984.613	-658.137	1258.881	700.454	-417.779	1202.135	701.066	-354.893	1185.182	593.409	-374.168	1149.702	466.394	-387.625	1144.159	354.492	-379.909	1137.135	241.948	-386.43	1061.477	361.411	-378.018	1056.125	247.232	-376.113	1090.956	91.3	-406.685	1105.037	99.014	-480.475	1022.851	66.105	-450.522	1051.114	42.541	-407.011	1122.252	41.655	-389.984	1212.368	35.284	-378.704	1283.584	44.447	-432.301	1230.378	44.495	-474.337	1190.657	63.976	-472.073	1130.85	42.334	-487.985	1059.51	38.914	-485.614	1238.087	721.719	-725.446	1219.379	616.717	-706.296	1158.501	726.604	-756.637	1141.595	621.025	-728.766	1152.979	449.352	-698.482	1166.605	361.575	-696.358	1091.273	373.133	-728.659	1076.209	264.633	-724.452	1097.859	79.422	-690.979	1114.014	101.31	-612.935	1028.814	62.292	-649.569	1055.092	35.639	-692.009	1123.708	37.687	-704.897	1215.745	29.556	-716.063	1291.147	41.44	-657.883	1233.533	41.985	-618.586	1186.042	66.684	-618.937	1137.957	38.473	-606.528	1078.706	40.8	-610.905	1007.573	260.79	-490.106	1004.105	264.15	-452.706	1021.078	231.169	-462.169	1130.337	1394.856	-399.25	1162.597	1386.234	-734.134	1092.555	1424.134	-568.239	1222.834	1347.858	-557.62	1137.755	463.273	-505.96	1138.173	459.298	-595.371	1183.503	854.359	-451.539	1193.12	852.012	-639.797
63	0.62	1232.287	994.749	-430.147	1058.258	1010.866	-498.536	1057.702	993.19	-556.433	1064.313	1008.389	-607.423	1252.011	984.647	-658.145	1258.852	700.517	-417.813	1202.336	700.984	-355.656	1185.174	593.457	-374.244	1149.811	466.373	-387.705	1144.252	354.53	-379.971	1137.193	241.973	-386.531	1061.597	361.421	-378.109	1056.165	247.277	-376.177	1090.948	91.368	-406.671	1105.11	99.006	-480.518	1022.867	66.102	-450.541	1051.131	42.513	-407.015	1122.238	41.637	-389.971	1212.374	35.298	-378.715	1283.573	44.429	-432.284	1230.384	44.523	-474.346	1190.68	64.001	-472.096	1130.793	42.271	-487.962	1059.577	38.923	-485.642	1238.112	722.136	-725.473	1219.391	616.729	-706.283	1158.496	726.574	-756.643	1141.614	621.032	-728.783	1153.002	449.317	-698.505	1166.606	361.554	-696.362	1091.328	373.155	-728.666	1076.224	264.629	-724.462	1097.898	79.502	-690.999	1113.985	101.324	-612.946	1028.807	62.298	-649.57	1055.1	35.57	-692.03	1123.72	37.716	-704.887	1215.734	29.528	-716.071	1291.164	41.467	-657.904	1233.542	42.002	-618.589	1186.062	66.732	-618.945	1137.959	38.487	-606.529	1078.645	40.799	-610.945	1007.621	260.778	-490.163	1004.183	264.183	-452.775	1021.138	231.207	-462.247	1130.246	1394.904	-399.305	1162.525	1386.254	-734.143	1092.425	1424.224	-568.207	1222.715	1347.862	-557.638	1137.93	463.275	-506.037	1138.163	459.315	-595.378	1183.364	854.359	-451.577	1193.035	852.027	-639.833
64	0.63	1232.141	994.766	-430.198	1058.074	1010.867	-498.601	1057.491	993.166	-556.54	1064.186	1008.368	-607.507	1251.896	984.651	-658.146	1258.785	700.57	-417.864	1202.294	700.934	-355.739	1185.186	593.444	-374.309	1149.943	466.364	-387.79	1144.39	354.471	-380.032	1137.232	241.948	-386.531	1061.672	361.397	-378.139	1056.255	247.245	-376.199	1090.943	91.332	-406.714	1105.05	99.002	-480.498	1022.878	66.122	-450.548	1051.117	42.57	-406.988	1122.297	41.614	-389.996	1212.391	35.285	-378.693	1283.572	44.4	-432.257	1230.395	44.51	-474.341	1190.734	63.999	-472.112	1130.647	42.382	-487.785	1059.509	38.95	-485.616	1238.108	721.719	-725.434	1219.432	616.771	-706.266	1158.474	726.587	-756.689	1141.638	621.035	-728.841	1153.052	449.31	-698.52	1166.656	361.555	-696.341	1091.342	373.159	-728.712	1076.25	264.629	-724.475	1097.927	79.429	-690.886	1114.021	101.293	-612.952	1028.811	62.285	-649.532	1055.104	35.573	-692.044	1123.733	37.705	-704.869	1215.778	29.546	-716.111	1291.185	41.451	-657.87	1233.561	41.992	-618.564	1186.088	66.708	-618.946	1137.993	38.482	-606.505	1078.687	40.794	-610.939	1007.695	260.812	-490.207	1004.253	264.212	-452.821	1021.187	231.21	-462.285	1130.127	1394.88	-399.273	1162.385	1386.279	-734.192	1092.354	1424.172	-568.364	1222.612	1347.797	-557.667	1138.005	463.231	-506.109	1138.209	459.29	-595.418	1183.201	854.371	-451.612	1192.921	852.022	-639.865
65	0.64	1232.005	994.745	-430.237	1057.868	1010.855	-498.682	1057.324	993.135	-556.595	1064.088	1008.331	-607.537	1251.815	984.662	-658.133	1258.746	700.558	-417.823	1202.008	701.012	-355.076	1185.219	593.437	-374.353	1150.019	466.299	-387.846	1144.489	354.416	-380.094	1137.3	241.887	-386.639	1061.793	361.368	-378.205	1056.294	247.19	-376.227	1090.982	91.308	-406.765	1105.043	99.016	-480.517	1022.871	66.083	-450.497	1051.132	42.543	-407.005	1122.36	41.573	-389.984	1212.438	35.266	-378.697	1283.608	44.389	-432.23	1230.461	44.51	-474.307	1190.761	63.94	-472.086	1130.498	42.413	-487.476	1059.528	38.954	-485.638	1238.128	721.679	-725.422	1219.476	616.747	-706.211	1158.456	726.605	-756.707	1141.627	621.007	-728.883	1153.063	449.289	-698.508	1166.7	361.503	-696.346	1091.378	373.138	-728.697	1076.284	264.595	-724.482	1097.842	79.411	-690.966	1114.09	101.286	-612.964	1028.819	62.267	-649.506	1055.097	35.572	-692.045	1123.774	37.671	-704.858	1215.849	29.477	-716.034	1291.236	41.442	-657.851	1233.611	41.961	-618.561	1186.107	66.615	-618.977	1138.019	38.47	-606.517	1078.675	40.803	-610.949	1007.785	260.791	-490.295	1004.29	264.208	-452.859	1021.219	231.199	-462.312	1130.003	1394.869	-399.345	1162.368	1385.971	-734.025	1092.232	1424.175	-568.342	1222.518	1347.688	-557.678	1138.085	463.165	-506.187	1138.223	459.277	-595.463	1183.054	854.355	-451.643	1192.831	852.018	-639.893
66	0.65	1231.876	994.712	-430.31	1057.659	1010.797	-498.805	1057.132	993.112	-556.666	1064.014	1008.342	-607.546	1251.736	984.695	-658.122	1258.667	700.591	-417.936	1201.949	700.909	-355.667	1185.177	593.435	-374.422	1150.103	466.291	-387.934	1144.561	354.352	-380.177	1137.299	241.9	-386.621	1061.84	361.361	-378.254	1056.353	247.201	-376.257	1090.941	91.345	-406.682	1105.123	98.89	-480.501	1022.91	66.089	-450.543	1051.068	42.59	-407.025	1122.43	41.559	-390.017	1212.465	35.28	-378.69	1283.653	44.418	-432.254	1230.497	44.494	-474.303	1190.781	63.943	-472.06	1130.782	42.288	-487.784	1059.501	38.926	-485.616	1238.163	721.695	-725.428	1219.5	616.755	-706.201	1158.416	726.596	-756.739	1141.618	621.027	-728.906	1153.075	449.307	-698.498	1166.721	361.507	-696.31	1091.369	373.092	-728.693	1076.327	264.578	-724.455	1097.858	79.396	-690.889	1114.102	101.261	-612.976	1028.787	62.257	-649.578	1055.066	35.596	-692.022	1123.785	37.699	-704.846	1215.891	29.494	-716.025	1291.263	41.419	-657.839	1233.649	41.966	-618.535	1186.115	66.612	-618.993	1138.072	38.416	-606.532	1078.706	40.816	-610.905	1007.775	260.75	-490.286	1004.318	264.194	-452.9	1021.234	231.192	-462.373	1129.911	1394.858	-399.378	1162.289	1385.965	-734.059	1092.125	1424.198	-568.326	1222.402	1347.635	-557.715	1138.203	463.166	-506.256	1138.206	459.25	-595.479	1182.909	854.316	-451.728	1192.745	852.043	-639.976
